# xmcd
#
# Track frame offsets: 
#        150
#        17089
#        25489
#        41195
#        56149
#        68043
#        82758
#        95113
#        109935
#        128072
#        140295
#        152057
#        166435
#        174980
#        186599
#        202680
#        210115
#        224726
#
# Disc length: 3139 seconds
#
# Revision: 1
# Processed by: cddbd v1.5.2PL0 Copyright (c) Steve Scherf et al.
# Submitted via: ExactAudioCopy v1.3
#
DISCID=000c4112
DTITLE=Various Artist - Country . Cd3
DYEAR=2007
DGENRE=Country
TTITLE0=Lynn Anderson -  Blue Bayou
TTITLE1=Pam Tillis -  Do You Know Where Your Man Is
TTITLE2=Doug Stone -  Jukebox And The Country Song
TTITLE3=Asleep At The Wheel -  Get Your Kicks On Route 66
TTITLE4=Billie Jo Spears -  What HaveThey Done To My Song Ma
TTITLE5=TG Sheppard -  Motels And Memories
TTITLE6=Kenny Rogers -  Ruben James
TTITLE7=Jeanne Pruett -  Satin Sheets
TTITLE8=Johnny Paycheck  -  Billy Jack Washburn
TTITLE9=Dolly Parton -  Letter To Heaven
TTITLE10=Donna Fargo -  The Happiest Girl In The Whole USA
TTITLE11=Exile -  Work Up In Love
TTITLE12=Waylon Jennings -  Jolie Blonde
TTITLE13=Patsy Cline -  Cry Not For Me
TTITLE14=Juice Newton -  Hurt
TTITLE15=Buck Ownes -  Down In The Corner Of Love
TTITLE16=Porter Wagoner -  Green Green Gras Of Home
TTITLE17=Jack Greene -  Back In The Arms Of Love
EXTD=
EXTT0=
EXTT1=
EXTT2=
EXTT3=
EXTT4=
EXTT5=
EXTT6=
EXTT7=
EXTT8=
EXTT9=
EXTT10=
EXTT11=
EXTT12=
EXTT13=
EXTT14=
EXTT15=
EXTT16=
EXTT17=
PLAYORDER=
